{"glyphs":{"0":{"ha":1017,"x_min":0,"x_max":949,"o":"m 475 949 q 810 810 671 949 q 949 475 949 671 q 810 139 949 278 q 475 0 671 0 q 139 139 278 0 q 0 475 0 278 q 139 810 0 671 q 475 949 278 949 m 475 814 q 235 714 334 814 q 136 475 136 615 q 235 235 136 334 q 475 136 334 136 q 714 235 615 136 q 814 475 814 334 q 714 714 814 615 q 475 814 615 814 z "},"1":{"ha":407,"x_min":0,"x_max":339,"o":"m 203 610 q 144 754 203 694 q 0 814 84 814 l 0 949 q 240 850 140 949 q 339 610 339 751 l 339 0 l 203 0 l 203 610 z "},"2":{"ha":1017,"x_min":0,"x_max":949,"o":"m 678 949 q 870 870 791 949 q 949 678 949 791 q 870 486 949 566 q 678 407 791 407 l 271 407 q 175 367 215 407 q 136 271 136 328 q 175 175 136 215 q 271 136 215 136 l 949 136 l 949 0 l 271 0 q 79 79 159 0 q 0 271 0 159 q 79 463 0 384 q 271 543 159 543 l 678 543 q 774 582 734 543 q 814 678 814 622 q 774 774 814 734 q 678 814 734 814 l 0 814 l 0 949 l 678 949 z "},"3":{"ha":1017,"x_min":0,"x_max":949,"o":"m 0 407 l 0 543 l 678 543 q 774 582 734 543 q 814 678 814 622 q 774 774 814 734 q 678 814 734 814 l 0 814 l 0 949 l 678 949 q 870 870 791 949 q 949 678 949 791 q 870 486 949 566 q 858 475 864 480 q 870 463 864 469 q 949 271 949 384 q 870 79 949 159 q 678 0 791 0 l 0 0 l 0 136 l 678 136 q 774 175 734 136 q 814 271 814 215 q 774 367 814 328 q 678 407 734 407 l 0 407 z "},"4":{"ha":1017,"x_min":0,"x_max":949,"o":"m 475 407 q 139 546 278 407 q 0 882 0 685 l 0 949 l 136 949 l 136 882 q 235 642 136 741 q 475 543 334 543 l 678 543 l 678 949 l 814 949 l 814 543 l 949 543 l 949 407 l 814 407 l 814 0 l 678 0 l 678 407 l 475 407 z "},"5":{"ha":1017,"x_min":0,"x_max":949,"o":"m 271 949 l 949 949 l 949 814 l 271 814 q 175 774 215 814 q 136 678 136 734 q 175 582 136 622 q 271 543 215 543 l 678 543 q 870 463 791 543 q 949 271 949 384 q 870 79 949 159 q 678 0 791 0 l 0 0 l 0 136 l 678 136 q 774 175 734 136 q 814 271 814 215 q 774 367 814 328 q 678 407 734 407 l 271 407 q 79 486 159 407 q 0 678 0 566 q 79 870 0 791 q 271 949 159 949 z "},"6":{"ha":1017,"x_min":0,"x_max":949,"o":"m 136 678 l 136 543 l 678 543 q 870 463 791 543 q 949 271 949 384 q 870 79 949 159 q 678 0 791 0 l 271 0 q 79 79 159 0 q 0 271 0 159 l 0 678 q 79 870 0 791 q 271 949 159 949 l 949 949 l 949 814 l 271 814 q 175 774 215 814 q 136 678 136 734 m 678 136 q 774 175 734 136 q 814 271 814 215 q 774 367 814 328 q 678 407 734 407 l 136 407 l 136 271 q 175 175 136 215 q 271 136 215 136 l 678 136 z "},"7":{"ha":1017,"x_min":0,"x_max":949,"o":"m 0 271 q 79 463 0 384 q 271 543 159 543 l 678 543 q 774 582 734 543 q 814 678 814 622 q 774 774 814 734 q 678 814 734 814 l 0 814 l 0 949 l 678 949 q 870 870 791 949 q 949 678 949 791 q 870 486 949 566 q 678 407 791 407 l 271 407 q 175 367 215 407 q 136 271 136 328 l 136 0 l 0 0 l 0 271 z "},"8":{"ha":1017,"x_min":0,"x_max":949,"o":"m 678 543 q 774 582 734 543 q 814 678 814 622 q 774 774 814 734 q 678 814 734 814 l 271 814 q 175 774 215 814 q 136 678 136 734 q 175 582 136 622 q 271 543 215 543 l 678 543 m 678 949 q 870 870 791 949 q 949 678 949 791 q 870 486 949 566 q 858 475 864 480 q 870 463 864 469 q 949 271 949 384 q 870 79 949 159 q 678 0 791 0 l 271 0 q 79 79 159 0 q 0 271 0 159 q 79 463 0 384 q 92 475 85 469 q 79 486 85 480 q 0 678 0 566 q 79 870 0 791 q 271 949 159 949 l 678 949 m 678 136 q 774 175 734 136 q 814 271 814 215 q 774 367 814 328 q 678 407 734 407 l 271 407 q 175 367 215 407 q 136 271 136 328 q 175 175 136 215 q 271 136 215 136 l 678 136 z "},"9":{"ha":1017,"x_min":0,"x_max":949,"o":"m 814 271 l 814 407 l 271 407 q 79 486 159 407 q 0 678 0 566 q 79 870 0 791 q 271 949 159 949 l 678 949 q 870 870 791 949 q 949 678 949 791 l 949 271 q 870 79 949 159 q 678 0 791 0 l 0 0 l 0 136 l 678 136 q 774 175 734 136 q 814 271 814 215 m 271 814 q 175 774 215 814 q 136 678 136 734 q 175 582 136 622 q 271 543 215 543 l 814 543 l 814 678 q 774 774 814 734 q 678 814 734 814 l 271 814 z "},"\u0000":{"ha":0,"x_min":0,"x_max":0,"o":""}," ":{"ha":345,"x_min":0,"x_max":0,"o":""},"!":{"ha":203,"x_min":0,"x_max":136,"o":"m 0 271 l 0 949 l 136 949 l 136 271 l 0 271 m 136 136 l 136 0 l 0 0 l 0 136 l 136 136 z "},"\"":{"ha":407,"x_min":0,"x_max":339,"o":"m 136 949 l 136 678 l 0 678 l 0 949 l 136 949 m 339 949 l 339 678 l 203 678 l 203 949 l 339 949 z "},"#":{"ha":1017,"x_min":0,"x_max":949,"o":"m 271 407 l 271 543 l 0 543 l 0 678 l 271 678 l 271 949 l 407 949 l 407 678 l 543 678 l 543 949 l 678 949 l 678 678 l 949 678 l 949 543 l 678 543 l 678 407 l 949 407 l 949 271 l 678 271 l 678 0 l 543 0 l 543 271 l 407 271 l 407 0 l 271 0 l 271 271 l 0 271 l 0 407 l 271 407 m 407 543 l 407 407 l 543 407 l 543 543 l 407 543 z "},"$":{"ha":1017,"x_min":0,"x_max":949,"o":"m 271 543 l 271 814 q 175 774 215 814 q 136 678 136 734 q 175 582 136 622 q 271 543 215 543 m 678 136 q 774 175 734 136 q 814 271 814 215 q 774 367 814 328 q 678 407 734 407 l 678 136 m 271 407 q 79 486 159 407 q 0 678 0 566 q 79 870 0 791 q 271 949 159 949 l 271 1017 l 407 1017 l 407 949 l 543 949 l 543 1017 l 678 1017 l 678 949 l 949 949 l 949 814 l 678 814 l 678 543 q 870 463 791 543 q 949 271 949 384 q 870 79 949 159 q 678 0 791 0 l 678 -68 l 543 -68 l 543 0 l 407 0 l 407 -68 l 271 -68 l 271 0 l 0 0 l 0 136 l 271 136 l 271 407 m 543 407 l 407 407 l 407 136 l 543 136 l 543 407 m 407 543 l 543 543 l 543 814 l 407 814 l 407 543 z "},"%":{"ha":1017,"x_min":0,"x_max":949,"o":"m 0 271 q 79 463 0 384 q 271 543 159 543 l 678 543 q 774 582 734 543 q 814 678 814 622 l 814 949 l 949 949 l 949 678 q 870 486 949 566 q 678 407 791 407 l 271 407 q 175 367 215 407 q 136 271 136 328 l 136 0 l 0 0 l 0 271 m 170 949 q 290 900 240 949 q 339 780 339 850 q 290 660 339 709 q 170 610 240 610 q 50 660 99 610 q 0 780 0 709 q 50 900 0 850 q 170 949 99 949 m 170 814 q 145 804 155 814 q 136 780 136 794 q 145 756 136 766 q 170 746 155 746 q 194 756 184 746 q 203 780 203 766 q 194 804 203 794 q 170 814 184 814 m 780 339 q 900 290 850 339 q 949 170 949 240 q 900 50 949 99 q 780 0 850 0 q 660 50 709 0 q 610 170 610 99 q 660 290 610 240 q 780 339 709 339 m 780 203 q 756 194 766 203 q 746 170 746 184 q 756 145 746 155 q 780 136 766 136 q 804 145 794 136 q 814 170 814 155 q 804 194 814 184 q 780 203 794 203 z "},"&":{"ha":1017,"x_min":0,"x_max":949,"o":"m 746 136 l 949 136 l 949 0 l 271 0 q 79 79 159 0 q 0 271 0 159 q 79 463 0 384 q 92 475 85 469 q 79 486 85 480 q 0 678 0 566 q 79 870 0 791 q 271 949 159 949 l 475 949 l 475 814 l 271 814 q 175 774 215 814 q 136 678 136 734 q 175 582 136 622 q 271 543 215 543 l 610 543 l 610 814 l 746 814 l 746 543 l 949 543 l 949 407 l 746 407 l 746 136 m 610 407 l 271 407 q 175 367 215 407 q 136 271 136 328 q 175 175 136 215 q 271 136 215 136 l 610 136 l 610 407 z "},"'":{"ha":203,"x_min":0,"x_max":136,"o":"m 136 949 l 136 678 l 0 678 l 0 949 l 136 949 z "},"(":{"ha":339,"x_min":0,"x_max":271,"o":"m 0 746 q 79 938 0 859 q 271 1017 159 1017 l 271 882 q 175 842 215 882 q 136 746 136 802 l 136 203 q 175 107 136 147 q 271 68 215 68 l 271 -68 q 79 12 159 -68 q 0 203 0 91 l 0 746 z "},")":{"ha":339,"x_min":0,"x_max":271,"o":"m 271 203 q 192 12 271 91 q 0 -68 113 -68 l 0 68 q 96 107 56 68 q 136 203 136 147 l 136 746 q 96 842 136 802 q 0 882 56 882 l 0 1017 q 192 938 113 1017 q 271 746 271 859 l 271 203 z "},"*":{"ha":610,"x_min":3,"x_max":540,"o":"m 339 560 l 339 407 l 203 407 l 203 560 l 71 484 l 3 602 l 135 678 l 3 755 l 71 873 l 203 796 l 203 949 l 339 949 l 339 796 l 472 873 l 540 755 l 408 678 l 540 602 l 472 484 l 339 560 z "},"+":{"ha":610,"x_min":0,"x_max":543,"o":"m 339 543 l 543 543 l 543 407 l 339 407 l 339 203 l 203 203 l 203 407 l 0 407 l 0 543 l 203 543 l 203 746 l 339 746 l 339 543 z "},",":{"ha":203,"x_min":0,"x_max":136,"o":"m 136 136 l 136 -136 l 0 -136 l 0 136 l 136 136 z "},"-":{"ha":610,"x_min":0,"x_max":543,"o":"m 543 543 l 543 407 l 0 407 l 0 543 l 543 543 z "},".":{"ha":203,"x_min":0,"x_max":136,"o":"m 136 136 l 136 0 l 0 0 l 0 136 l 136 136 z "},"/":{"ha":1017,"x_min":0,"x_max":949,"o":"m 0 271 q 79 463 0 384 q 271 543 159 543 l 678 543 q 774 582 734 543 q 814 678 814 622 l 814 1017 l 949 1017 l 949 678 q 870 486 949 566 q 678 407 791 407 l 271 407 q 175 367 215 407 q 136 271 136 328 l 136 -68 l 0 -68 l 0 271 z "},":":{"ha":203,"x_min":0,"x_max":136,"o":"m 136 407 l 136 271 l 0 271 l 0 407 l 136 407 m 136 678 l 136 543 l 0 543 l 0 678 l 136 678 z "},";":{"ha":203,"x_min":0,"x_max":136,"o":"m 136 407 l 136 136 l 0 136 l 0 407 l 136 407 m 136 678 l 136 543 l 0 543 l 0 678 l 136 678 z "},"<":{"ha":610,"x_min":0,"x_max":543,"o":"m 136 475 l 543 272 l 543 136 l 0 407 l 0 543 l 543 814 l 543 676 l 136 475 z "},"=":{"ha":610,"x_min":0,"x_max":543,"o":"m 543 407 l 543 271 l 0 271 l 0 407 l 543 407 m 543 678 l 543 543 l 0 543 l 0 678 l 543 678 z "},">":{"ha":610,"x_min":0,"x_max":543,"o":"m 0 676 l 1 814 l 543 543 l 543 407 l 1 136 l 1 272 l 408 475 l 0 676 z "},"?":{"ha":1017,"x_min":0,"x_max":949,"o":"m 271 136 l 271 0 l 136 0 l 136 136 l 271 136 m 136 271 q 215 463 136 384 q 407 543 294 543 l 678 543 q 774 582 734 543 q 814 678 814 622 q 774 774 814 734 q 678 814 734 814 l 0 814 l 0 949 l 678 949 q 870 870 791 949 q 949 678 949 791 q 870 486 949 566 q 678 407 791 407 l 407 407 q 311 367 351 407 q 271 271 271 328 l 136 271 z "},"@":{"ha":1017,"x_min":0,"x_max":949,"o":"m 475 610 q 379 571 418 610 q 339 475 339 531 q 379 379 339 418 q 475 339 418 339 q 571 379 531 339 q 610 475 610 418 q 571 571 610 531 q 475 610 531 610 m 711 339 l 787 339 q 814 475 814 401 q 714 714 814 615 q 475 814 615 814 q 235 714 334 814 q 136 475 136 615 q 235 235 136 334 q 475 136 334 136 q 679 203 591 136 l 475 203 q 283 283 362 203 q 203 475 203 362 q 283 667 203 587 q 475 746 362 746 q 667 667 587 746 q 746 475 746 587 q 711 339 746 399 m 810 810 q 880 741 810 810 q 949 475 949 671 q 810 139 949 278 q 475 0 671 0 q 139 139 278 0 q 0 475 0 278 q 139 810 0 671 q 475 949 278 949 q 810 810 671 949 z "},"A":{"ha":1017,"x_min":0,"x_max":949,"o":"m 136 339 l 136 0 l 0 0 l 0 475 q 139 810 0 671 q 475 949 278 949 q 810 810 671 949 q 949 475 949 671 l 949 0 l 814 0 l 814 339 l 136 339 m 814 475 q 714 714 814 615 q 475 814 615 814 q 235 714 334 814 q 136 475 136 615 l 814 475 z "},"B":{"ha":1017,"x_min":0,"x_max":949,"o":"m 0 949 l 678 949 q 870 870 791 949 q 949 678 949 791 q 870 486 949 566 q 858 475 864 480 q 870 463 864 469 q 949 271 949 384 q 870 79 949 159 q 678 0 791 0 l 0 0 l 0 949 m 136 407 l 136 136 l 678 136 q 774 175 734 136 q 814 271 814 215 q 774 367 814 328 q 678 407 734 407 l 136 407 m 136 814 l 136 543 l 678 543 q 774 582 734 543 q 814 678 814 622 q 774 774 814 734 q 678 814 734 814 l 136 814 z "},"C":{"ha":1017,"x_min":0,"x_max":949,"o":"m 475 949 l 949 949 l 949 814 l 475 814 q 235 714 334 814 q 136 475 136 615 q 235 235 136 334 q 475 136 334 136 l 949 136 l 949 0 l 475 0 q 139 139 278 0 q 0 475 0 278 q 139 810 0 671 q 475 949 278 949 z "},"D":{"ha":1017,"x_min":0,"x_max":949,"o":"m 475 949 q 810 810 671 949 q 949 475 949 671 q 810 139 949 278 q 475 0 671 0 l 0 0 l 0 949 l 475 949 m 475 136 q 714 235 615 136 q 814 475 814 334 q 714 714 814 615 q 475 814 615 814 l 136 814 l 136 136 l 475 136 z "},"E":{"ha":1017,"x_min":0,"x_max":949,"o":"m 475 949 l 949 949 l 949 814 l 475 814 q 235 715 334 814 q 142 543 161 640 l 814 543 l 814 407 l 142 407 q 235 235 161 309 q 475 136 334 136 l 949 136 l 949 0 l 475 0 q 139 139 278 0 q 0 475 0 278 q 139 810 0 671 q 475 949 278 949 z "},"F":{"ha":1017,"x_min":0,"x_max":949,"o":"m 0 475 q 139 810 0 671 q 475 949 278 949 l 949 949 l 949 814 l 475 814 q 235 715 334 814 q 142 543 161 640 l 814 543 l 814 407 l 142 407 l 136 410 l 136 0 l 0 0 l 0 475 z "},"G":{"ha":1017,"x_min":0,"x_max":949,"o":"m 949 0 l 475 0 q 139 139 278 0 q 0 475 0 278 q 139 810 0 671 q 475 949 278 949 l 949 949 l 949 814 l 475 814 q 235 714 334 814 q 136 475 136 615 q 235 235 136 334 q 475 136 334 136 l 814 136 l 814 407 l 475 407 l 475 543 l 949 543 l 949 0 z "},"H":{"ha":1017,"x_min":0,"x_max":949,"o":"m 136 407 l 136 0 l 0 0 l 0 949 l 136 949 l 136 543 l 814 543 l 814 949 l 949 949 l 949 0 l 814 0 l 814 407 l 136 407 z "},"I":{"ha":203,"x_min":0,"x_max":136,"o":"m 136 0 l 0 0 l 0 949 l 136 949 l 136 0 z "},"J":{"ha":543,"x_min":0,"x_max":475,"o":"m 475 475 q 336 139 475 278 q 0 0 197 0 l 0 136 q 240 235 140 136 q 339 475 339 334 l 339 949 l 475 949 l 475 475 z "},"K":{"ha":1017,"x_min":0,"x_max":949,"o":"m 475 543 q 714 642 615 543 q 814 882 814 741 l 814 949 l 949 949 l 949 882 q 810 546 949 685 q 722 475 768 504 q 810 404 768 446 q 949 68 949 264 l 949 0 l 814 0 l 814 68 q 714 308 814 208 q 475 407 615 407 l 136 407 l 136 0 l 0 0 l 0 949 l 136 949 l 136 543 l 475 543 z "},"L":{"ha":543,"x_min":0,"x_max":475,"o":"m 0 475 l 0 949 l 136 949 l 136 475 q 235 235 136 334 q 475 136 334 136 l 475 0 q 139 139 278 0 q 0 475 0 278 z "},"M":{"ha":1831,"x_min":0,"x_max":1763,"o":"m 814 475 q 714 714 814 615 q 475 814 615 814 q 235 714 334 814 q 136 475 136 615 l 136 0 l 0 0 l 0 475 q 139 810 0 671 q 475 949 278 949 q 810 810 671 949 q 882 722 852 768 q 953 810 911 768 q 1289 949 1092 949 q 1624 810 1485 949 q 1763 475 1763 671 l 1763 0 l 1628 0 l 1628 475 q 1528 714 1628 615 q 1289 814 1429 814 q 1049 714 1148 814 q 949 475 949 615 l 949 0 l 814 0 l 814 475 z "},"N":{"ha":1017,"x_min":0,"x_max":949,"o":"m 949 475 l 949 0 l 814 0 l 814 475 q 714 714 814 615 q 475 814 615 814 q 235 714 334 814 q 136 475 136 615 l 136 0 l 0 0 l 0 475 q 139 810 0 671 q 475 949 278 949 q 810 810 671 949 q 949 475 949 671 z "},"O":{"ha":1017,"x_min":0,"x_max":949,"o":"m 475 949 q 810 810 671 949 q 949 475 949 671 q 810 139 949 278 q 475 0 671 0 q 139 139 278 0 q 0 475 0 278 q 139 810 0 671 q 475 949 278 949 m 475 814 q 235 714 334 814 q 136 475 136 615 q 235 235 136 334 q 475 136 334 136 q 714 235 615 136 q 814 475 814 334 q 714 714 814 615 q 475 814 615 814 z "},"P":{"ha":1017,"x_min":0,"x_max":949,"o":"m 136 814 l 136 543 l 678 543 q 774 582 734 543 q 814 678 814 622 q 774 774 814 734 q 678 814 734 814 l 136 814 m 0 949 l 678 949 q 870 870 791 949 q 949 678 949 791 q 870 486 949 566 q 678 407 791 407 l 136 407 l 136 0 l 0 0 l 0 949 z "},"Q":{"ha":1017,"x_min":0,"x_max":949,"o":"m 543 142 q 715 235 640 161 q 814 475 814 334 q 714 714 814 615 q 475 814 615 814 q 235 714 334 814 q 136 475 136 615 q 235 235 136 334 q 407 142 309 161 l 407 475 l 543 475 l 543 142 m 407 -1 q 139 139 256 22 q 0 475 0 278 q 139 810 0 671 q 475 949 278 949 q 810 810 671 949 q 949 475 949 671 q 810 139 949 278 q 543 0 699 28 l 543 -136 l 407 -136 l 407 -1 z "},"R":{"ha":1017,"x_min":0,"x_max":949,"o":"m 136 814 l 136 543 l 678 543 q 774 582 734 543 q 814 678 814 622 q 774 774 814 734 q 678 814 734 814 l 136 814 m 0 949 l 678 949 q 870 870 791 949 q 949 678 949 791 q 870 486 949 566 q 858 475 864 480 q 870 463 864 469 q 949 271 949 384 l 949 0 l 814 0 l 814 271 q 774 367 814 328 q 678 407 734 407 l 136 407 l 136 0 l 0 0 l 0 949 z "},"S":{"ha":1017,"x_min":0,"x_max":949,"o":"m 271 949 l 949 949 l 949 814 l 271 814 q 175 774 215 814 q 136 678 136 734 q 175 582 136 622 q 271 543 215 543 l 678 543 q 870 463 791 543 q 949 271 949 384 q 870 79 949 159 q 678 0 791 0 l 0 0 l 0 136 l 678 136 q 774 175 734 136 q 814 271 814 215 q 774 367 814 328 q 678 407 734 407 l 271 407 q 79 486 159 407 q 0 678 0 566 q 79 870 0 791 q 271 949 159 949 z "},"T":{"ha":1017,"x_min":0,"x_max":949,"o":"m 543 0 l 407 0 l 407 814 l 0 814 l 0 949 l 949 949 l 949 814 l 543 814 l 543 0 z "},"U":{"ha":1017,"x_min":0,"x_max":949,"o":"m 0 475 l 0 949 l 136 949 l 136 475 q 235 235 136 334 q 475 136 334 136 q 714 235 615 136 q 814 475 814 334 l 814 949 l 949 949 l 949 475 q 810 139 949 278 q 475 0 671 0 q 139 139 278 0 q 0 475 0 278 z "},"V":{"ha":1017,"x_min":0,"x_max":949,"o":"m 0 610 l 0 949 l 136 949 l 136 610 q 235 371 136 470 q 475 168 334 271 q 714 371 615 271 q 814 610 814 470 l 814 949 l 949 949 l 949 610 q 810 275 949 414 q 475 0 671 136 q 139 275 278 136 q 0 610 0 414 z "},"W":{"ha":1831,"x_min":0,"x_max":1763,"o":"m 949 475 q 1049 235 949 334 q 1289 136 1148 136 q 1528 235 1429 136 q 1628 475 1628 334 l 1628 949 l 1763 949 l 1763 475 q 1624 139 1763 278 q 1289 0 1485 0 q 953 139 1092 0 q 882 228 911 181 q 810 139 852 181 q 475 0 671 0 q 139 139 278 0 q 0 475 0 278 l 0 949 l 136 949 l 136 475 q 235 235 136 334 q 475 136 334 136 q 714 235 615 136 q 814 475 814 334 l 814 949 l 949 949 l 949 475 z "},"X":{"ha":1017,"x_min":0,"x_max":949,"o":"m 228 475 q 139 546 181 504 q 0 882 0 685 l 0 949 l 136 949 l 136 882 q 235 642 136 741 q 475 543 334 543 q 714 642 615 543 q 814 882 814 741 l 814 949 l 949 949 l 949 882 q 810 546 949 685 q 722 475 768 504 q 810 404 768 446 q 949 68 949 264 l 949 0 l 814 0 l 814 68 q 714 308 814 208 q 475 407 615 407 q 235 308 334 407 q 136 68 136 208 l 136 0 l 0 0 l 0 68 q 139 404 0 264 q 228 475 181 446 z "},"Y":{"ha":1017,"x_min":0,"x_max":949,"o":"m 407 343 q 139 478 254 363 q 0 814 0 617 l 0 949 l 136 949 l 136 814 q 235 574 136 673 q 475 475 334 475 q 714 574 615 475 q 814 814 814 673 l 814 949 l 949 949 l 949 814 q 810 478 949 617 q 543 343 696 363 l 543 0 l 407 0 l 407 343 z "},"Z":{"ha":1017,"x_min":0,"x_max":949,"o":"m 678 949 q 870 870 791 949 q 949 678 949 791 q 870 486 949 566 q 678 407 791 407 l 271 407 q 175 367 215 407 q 136 271 136 328 q 175 175 136 215 q 271 136 215 136 l 949 136 l 949 0 l 271 0 q 79 79 159 0 q 0 271 0 159 q 79 463 0 384 q 271 543 159 543 l 678 543 q 774 582 734 543 q 814 678 814 622 q 774 774 814 734 q 678 814 734 814 l 0 814 l 0 949 l 678 949 z "},"[":{"ha":339,"x_min":0,"x_max":271,"o":"m 271 68 l 271 -68 l 0 -68 l 0 1017 l 271 1017 l 271 882 l 136 882 l 136 68 l 271 68 z "},"\\":{"ha":1017,"x_min":0,"x_max":949,"o":"m 949 -68 l 814 -68 l 814 271 q 774 367 814 328 q 678 407 734 407 l 271 407 q 79 486 159 407 q 0 678 0 566 l 0 1017 l 136 1017 l 136 678 q 175 582 136 622 q 271 543 215 543 l 678 543 q 870 463 791 543 q 949 271 949 384 l 949 -68 z "},"]":{"ha":339,"x_min":0,"x_max":271,"o":"m 136 68 l 136 882 l 0 882 l 0 1017 l 271 1017 l 271 -68 l 0 -68 l 0 68 l 136 68 z "},"^":{"ha":475,"x_min":0,"x_max":407,"o":"m 0 746 l 136 949 l 271 949 l 407 746 l 271 746 l 203 882 l 136 746 l 0 746 z "},"_":{"ha":1017,"x_min":0,"x_max":949,"o":"m 949 136 l 949 0 l 0 0 l 0 136 l 949 136 z "},"`":{"ha":203,"x_min":-48,"x_max":184,"o":"m 77 965 l 184 716 l 59 663 l -48 911 l 77 965 z "},"a":{"ha":746,"x_min":0,"x_max":678,"o":"m 339 543 q 195 483 255 543 q 136 339 136 423 q 195 195 136 255 q 339 136 255 136 q 483 195 423 136 q 543 339 543 255 q 483 483 543 423 q 339 543 423 543 m 543 67 q 339 0 455 0 q 99 99 199 0 q 0 339 0 199 q 99 579 0 479 q 339 678 199 678 q 579 579 479 678 q 678 339 678 479 l 678 0 l 543 0 l 543 67 z "},"b":{"ha":746,"x_min":0,"x_max":678,"o":"m 339 543 q 195 483 255 543 q 136 339 136 423 q 195 195 136 255 q 339 136 255 136 q 483 195 423 136 q 543 339 543 255 q 483 483 543 423 q 339 543 423 543 m 0 949 l 136 949 l 136 611 q 339 678 223 678 q 579 579 479 678 q 678 339 678 479 q 579 99 678 199 q 339 0 479 0 q 99 99 199 0 q 0 339 0 199 l 0 949 z "},"c":{"ha":746,"x_min":0,"x_max":672,"o":"m 532 271 l 672 271 q 579 100 653 174 q 339 0 479 0 q 99 99 199 0 q 0 339 0 199 q 99 579 0 479 q 339 678 199 678 q 579 579 479 678 q 672 407 653 505 l 532 407 q 483 483 517 449 q 339 543 423 543 q 195 483 255 543 q 136 339 136 423 q 195 195 136 255 q 339 136 255 136 q 483 195 423 136 q 532 271 517 229 z "},"d":{"ha":746,"x_min":0,"x_max":678,"o":"m 339 543 q 195 483 255 543 q 136 339 136 423 q 195 195 136 255 q 339 136 255 136 q 483 195 423 136 q 543 339 543 255 q 483 483 543 423 q 339 543 423 543 m 678 339 q 579 99 678 199 q 339 0 479 0 q 99 99 199 0 q 0 339 0 199 q 99 579 0 479 q 339 678 199 678 q 543 611 455 678 l 543 949 l 678 949 l 678 339 z "},"e":{"ha":746,"x_min":0,"x_max":678,"o":"m 532 407 q 483 483 517 449 q 339 543 423 543 q 195 483 255 543 q 146 407 161 449 l 532 407 m 490 203 l 651 203 q 579 100 626 146 q 339 0 479 0 q 99 99 199 0 q 0 339 0 199 q 99 579 0 479 q 339 678 199 678 q 579 579 479 678 q 678 339 678 479 q 672 271 678 304 l 146 271 q 195 195 161 229 q 339 136 255 136 q 483 195 423 136 q 490 203 487 199 z "},"f":{"ha":407,"x_min":0,"x_max":339,"o":"m 136 543 l 136 0 l 0 0 l 0 610 q 99 850 0 751 q 339 949 199 949 l 339 814 q 195 754 255 814 q 146 678 161 720 l 339 678 l 339 543 l 136 543 z "},"g":{"ha":746,"x_min":0,"x_max":678,"o":"m 136 339 q 195 195 136 255 q 339 136 255 136 q 483 195 423 136 q 543 339 543 255 q 483 483 543 423 q 339 543 423 543 q 195 483 255 543 q 136 339 136 423 m 678 339 l 678 68 q 579 -172 678 -73 q 339 -271 479 -271 l 339 -136 q 483 -76 423 -136 q 543 67 543 -16 q 339 0 455 0 q 99 99 199 0 q 0 339 0 199 q 99 579 0 479 q 339 678 199 678 q 579 579 479 678 q 678 339 678 479 z "},"h":{"ha":746,"x_min":0,"x_max":678,"o":"m 136 611 q 339 678 223 678 q 579 579 479 678 q 678 339 678 479 l 678 0 l 543 0 l 543 339 q 483 483 543 423 q 339 543 423 543 q 195 483 255 543 q 136 339 136 423 l 136 0 l 0 0 l 0 949 l 136 949 l 136 611 z "},"i":{"ha":203,"x_min":0,"x_max":136,"o":"m 136 678 l 136 0 l 0 0 l 0 678 l 136 678 m 0 814 l 0 949 l 136 949 l 136 814 l 0 814 z "},"j":{"ha":203,"x_min":-203,"x_max":136,"o":"m 0 68 l 0 678 l 136 678 l 136 68 q 36 -172 136 -73 q -203 -271 -63 -271 l -203 -136 q -60 -76 -119 -136 q 0 68 0 -16 m 136 949 l 136 814 l 0 814 l 0 949 l 136 949 z "},"k":{"ha":746,"x_min":0,"x_max":678,"o":"m 339 407 q 483 467 423 407 q 543 610 543 526 l 543 678 l 678 678 l 678 610 q 579 371 678 470 q 543 339 562 353 q 579 308 562 325 q 678 68 678 208 l 678 0 l 543 0 l 543 68 q 483 212 543 152 q 339 271 423 271 l 136 271 l 136 0 l 0 0 l 0 949 l 136 949 l 136 407 l 339 407 z "},"l":{"ha":203,"x_min":0,"x_max":136,"o":"m 136 0 l 0 0 l 0 949 l 136 949 l 136 0 z "},"m":{"ha":1289,"x_min":0,"x_max":1221,"o":"m 543 339 q 483 483 543 423 q 339 543 423 543 q 195 483 255 543 q 136 339 136 423 l 136 0 l 0 0 l 0 339 q 99 579 0 479 q 339 678 199 678 q 579 579 479 678 q 610 543 596 562 q 642 579 625 562 q 882 678 741 678 q 1121 579 1022 678 q 1221 339 1221 479 l 1221 0 l 1085 0 l 1085 339 q 1025 483 1085 423 q 882 543 966 543 q 738 483 798 543 q 678 339 678 423 l 678 0 l 543 0 l 543 339 z "},"n":{"ha":746,"x_min":0,"x_max":678,"o":"m 136 339 l 136 0 l 0 0 l 0 339 q 99 579 0 479 q 339 678 199 678 q 579 579 479 678 q 678 339 678 479 l 678 0 l 543 0 l 543 339 q 483 483 543 423 q 339 543 423 543 q 195 483 255 543 q 136 339 136 423 z "},"o":{"ha":746,"x_min":0,"x_max":678,"o":"m 339 678 q 579 579 479 678 q 678 339 678 479 q 579 99 678 199 q 339 0 479 0 q 99 99 199 0 q 0 339 0 199 q 99 579 0 479 q 339 678 199 678 m 339 543 q 195 483 255 543 q 136 339 136 423 q 195 195 136 255 q 339 136 255 136 q 483 195 423 136 q 543 339 543 255 q 483 483 543 423 q 339 543 423 543 z "},"p":{"ha":746,"x_min":0,"x_max":678,"o":"m 339 136 q 483 195 423 136 q 543 339 543 255 q 483 483 543 423 q 339 543 423 543 q 195 483 255 543 q 136 339 136 423 q 195 195 136 255 q 339 136 255 136 m 0 339 q 99 579 0 479 q 339 678 199 678 q 579 579 479 678 q 678 339 678 479 q 579 99 678 199 q 339 0 479 0 q 136 67 223 0 l 136 -271 l 0 -271 l 0 339 z "},"q":{"ha":746,"x_min":0,"x_max":678,"o":"m 339 136 q 483 195 423 136 q 543 339 543 255 q 483 483 543 423 q 339 543 423 543 q 195 483 255 543 q 136 339 136 423 q 195 195 136 255 q 339 136 255 136 m 678 -271 l 543 -271 l 543 67 q 339 0 455 0 q 99 99 199 0 q 0 339 0 199 q 99 579 0 479 q 339 678 199 678 q 579 579 479 678 q 678 339 678 479 l 678 -271 z "},"r":{"ha":407,"x_min":0,"x_max":339,"o":"m 136 339 l 136 0 l 0 0 l 0 339 q 99 579 0 479 q 339 678 199 678 l 339 543 q 195 483 255 543 q 136 339 136 423 z "},"s":{"ha":746,"x_min":0,"x_max":678,"o":"m 203 678 l 678 678 l 678 543 l 203 543 q 156 523 176 543 q 136 475 136 503 q 156 427 136 447 q 203 407 176 407 l 475 407 q 618 347 559 407 q 678 203 678 288 q 618 60 678 119 q 475 0 559 0 l 0 0 l 0 136 l 475 136 q 523 156 503 136 q 543 203 543 176 q 523 251 543 231 q 475 271 503 271 l 203 271 q 60 331 119 271 q 0 475 0 391 q 60 618 0 559 q 203 678 119 678 z "},"t":{"ha":407,"x_min":0,"x_max":339,"o":"m 0 949 l 136 949 l 136 678 l 339 678 l 339 543 l 136 543 l 136 339 q 195 195 136 255 q 339 136 255 136 l 339 0 q 99 99 199 0 q 0 339 0 199 l 0 949 z "},"u":{"ha":746,"x_min":0,"x_max":678,"o":"m 136 339 q 195 195 136 255 q 339 136 255 136 q 483 195 423 136 q 543 339 543 255 l 543 678 l 678 678 l 678 339 q 579 99 678 199 q 339 0 479 0 q 99 99 199 0 q 0 339 0 199 l 0 678 l 136 678 l 136 339 z "},"v":{"ha":746,"x_min":0,"x_max":678,"o":"m 136 407 q 195 263 136 323 q 339 149 255 203 q 483 263 423 203 q 543 407 543 323 l 543 678 l 678 678 l 678 407 q 579 167 678 267 q 339 0 479 68 q 99 167 199 68 q 0 407 0 267 l 0 678 l 136 678 l 136 407 z "},"w":{"ha":1289,"x_min":0,"x_max":1221,"o":"m 543 678 l 678 678 l 678 339 q 738 195 678 255 q 882 136 798 136 q 1025 195 966 136 q 1085 339 1085 255 l 1085 678 l 1221 678 l 1221 339 q 1121 99 1221 199 q 882 0 1022 0 q 642 100 741 0 q 610 135 625 117 q 579 100 596 117 q 339 0 479 0 q 99 99 199 0 q 0 339 0 199 l 0 678 l 136 678 l 136 339 q 195 195 136 255 q 339 136 255 136 q 483 195 423 136 q 543 339 543 255 l 543 678 z "},"x":{"ha":746,"x_min":0,"x_max":678,"o":"m 135 339 q 100 371 117 353 q 0 610 0 470 l 0 678 l 136 678 l 136 610 q 195 467 136 526 q 339 407 255 407 q 483 467 423 407 q 543 610 543 526 l 543 678 l 678 678 l 678 610 q 579 371 678 470 q 543 339 562 353 q 579 308 562 325 q 678 68 678 208 l 678 0 l 543 0 l 543 68 q 483 212 543 152 q 339 271 423 271 q 195 212 255 271 q 136 68 136 152 l 136 0 l 0 0 l 0 68 q 100 308 0 208 q 135 339 117 325 z "},"y":{"ha":746,"x_min":0,"x_max":678,"o":"m 678 68 q 579 -172 678 -73 q 339 -271 479 -271 l 339 -136 q 483 -76 423 -136 q 543 67 543 -16 q 339 0 455 0 q 99 99 199 0 q 0 339 0 199 l 0 678 l 136 678 l 136 339 q 195 195 136 255 q 339 136 255 136 q 483 195 423 136 q 543 339 543 255 l 543 678 l 678 678 l 678 68 z "},"z":{"ha":746,"x_min":0,"x_max":678,"o":"m 203 0 q 60 60 119 0 q 0 203 0 119 q 60 347 0 288 q 203 407 119 407 l 475 407 q 523 427 503 407 q 543 475 543 447 q 523 523 543 503 q 475 543 503 543 l 0 543 l 0 678 l 475 678 q 618 618 559 678 q 678 475 678 559 q 618 331 678 391 q 475 271 559 271 l 203 271 q 156 251 176 271 q 136 203 136 231 q 156 156 136 176 q 203 136 176 136 l 678 136 l 678 0 l 203 0 z "},"{":{"ha":475,"x_min":0,"x_max":407,"o":"m 136 746 q 215 938 136 859 q 407 1017 294 1017 l 407 882 q 311 842 351 882 q 271 746 271 802 l 271 678 q 192 486 271 566 q 180 475 186 480 q 192 463 186 469 q 271 271 271 384 l 271 203 q 311 107 271 147 q 407 68 351 68 l 407 -68 q 215 12 294 -68 q 136 203 136 91 l 136 271 q 96 367 136 328 q 0 407 56 407 l 0 543 q 96 582 56 543 q 136 678 136 622 l 136 746 z "},"|":{"ha":203,"x_min":0,"x_max":136,"o":"m 136 -68 l 0 -68 l 0 1017 l 136 1017 l 136 -68 z "},"}":{"ha":475,"x_min":0,"x_max":407,"o":"m 271 678 q 311 582 271 622 q 407 543 351 543 l 407 407 q 311 367 351 407 q 271 271 271 328 l 271 203 q 192 12 271 91 q 0 -68 113 -68 l 0 68 q 96 107 56 68 q 136 203 136 147 l 136 271 q 215 463 136 384 q 227 475 221 469 q 215 486 221 480 q 136 678 136 566 l 136 746 q 96 842 136 802 q 0 882 56 882 l 0 1017 q 192 938 113 1017 q 271 746 271 859 l 271 678 z "},"~":{"ha":543,"x_min":0,"x_max":475,"o":"m 0 882 q 237 882 136 949 q 475 882 339 814 l 475 746 q 237 746 339 678 q 0 746 136 814 l 0 882 z "},"¡":{"ha":203,"x_min":0,"x_max":136,"o":"m 136 423 l 136 -255 l 0 -255 l 0 423 l 136 423 m 0 559 l 0 694 l 136 694 l 136 559 l 0 559 z "},"¢":{"ha":746,"x_min":0,"x_max":672,"o":"m 334 136 l 339 136 q 483 195 423 136 q 532 271 517 229 l 672 271 q 579 100 653 174 q 339 0 479 0 q 285 4 311 0 l 235 -129 l 108 -81 l 158 52 q 100 100 127 72 q 0 339 0 199 q 99 579 0 479 q 339 678 199 678 q 393 674 367 678 l 444 807 l 570 760 l 520 627 q 579 579 551 607 q 672 407 653 505 l 532 407 q 483 483 517 449 q 470 494 477 489 l 334 136 m 344 543 l 339 543 q 195 483 255 543 q 136 339 136 423 q 195 195 136 255 q 208 184 201 189 l 344 543 z "},"£":{"ha":1017,"x_min":0,"x_max":949,"o":"m 136 407 l 0 407 l 0 543 l 140 543 q 275 810 160 696 q 610 949 414 949 l 949 949 l 949 814 l 610 814 q 371 715 470 814 q 277 543 296 640 l 814 543 l 814 407 l 271 407 l 271 136 l 949 136 l 949 0 l 0 0 l 0 136 l 136 136 l 136 407 z "},"¤":{"ha":1017,"x_min":91,"x_max":859,"o":"m 331 618 q 271 475 271 559 q 331 331 271 391 q 475 271 391 271 q 618 331 559 271 q 678 475 678 391 q 618 618 678 559 q 475 678 559 678 q 331 618 391 678 m 758 288 l 859 187 l 762 91 l 662 191 q 475 136 580 136 q 288 191 370 136 l 187 91 l 91 187 l 191 288 q 136 475 136 370 q 191 662 136 580 l 91 762 l 187 859 l 288 758 q 475 814 370 814 q 662 758 580 814 l 762 859 l 859 762 l 758 662 q 814 475 814 580 q 758 288 814 370 z "},"¥":{"ha":1017,"x_min":0,"x_max":949,"o":"m 407 339 l 407 343 q 139 478 254 363 q 0 814 0 617 l 0 949 l 136 949 l 136 814 q 235 574 136 673 q 475 475 334 475 q 714 574 615 475 q 814 814 814 673 l 814 949 l 949 949 l 949 814 q 810 478 949 617 q 543 343 696 363 l 543 339 l 746 339 l 746 203 l 543 203 l 543 165 l 746 165 l 746 29 l 543 29 l 543 0 l 407 0 l 407 29 l 203 29 l 203 165 l 407 165 l 407 203 l 203 203 l 203 339 l 407 339 z "},"¦":{"ha":203,"x_min":0,"x_max":136,"o":"m 136 407 l 136 -68 l 0 -68 l 0 407 l 136 407 m 0 543 l 0 1017 l 136 1017 l 136 543 l 0 543 z "},"§":{"ha":1017,"x_min":0,"x_max":949,"o":"m 203 949 l 949 949 l 949 814 l 203 814 q 156 794 176 814 q 136 746 136 774 q 156 698 136 718 q 203 678 176 678 l 746 678 q 890 618 830 678 q 949 475 949 559 q 897 339 949 396 q 949 203 949 282 q 890 60 949 119 q 746 0 830 0 l 0 0 l 0 136 l 746 136 q 794 156 774 136 q 814 203 814 176 q 794 251 814 231 q 746 271 774 271 l 203 271 q 60 331 119 271 q 0 475 0 391 q 52 610 0 553 q 0 746 0 667 q 60 890 0 830 q 203 949 119 949 m 203 543 q 156 523 176 543 q 136 475 136 503 q 156 427 136 447 q 203 407 176 407 l 746 407 q 794 427 774 407 q 814 475 814 447 q 794 523 814 503 q 746 543 774 543 l 203 543 z "},"¨":{"ha":407,"x_min":0,"x_max":339,"o":"m 136 949 l 136 814 l 0 814 l 0 949 l 136 949 m 339 949 l 339 814 l 203 814 l 203 949 l 339 949 z "},"©":{"ha":1017,"x_min":0,"x_max":949,"o":"m 475 949 q 810 810 671 949 q 949 475 949 671 q 810 139 949 278 q 475 0 671 0 q 139 139 278 0 q 0 475 0 278 q 139 810 0 671 q 475 949 278 949 m 475 882 q 187 763 306 882 q 68 475 68 644 q 187 187 68 306 q 475 68 306 68 q 763 187 644 68 q 882 475 882 306 q 763 763 882 644 q 475 882 644 882 m 667 407 l 738 407 q 667 283 721 337 q 475 203 587 203 q 283 283 362 203 q 203 475 203 362 q 283 667 203 587 q 475 746 362 746 q 667 667 587 746 q 738 543 721 612 l 667 543 q 618 618 652 585 q 475 678 559 678 q 331 618 391 678 q 271 475 271 559 q 331 331 271 391 q 475 271 391 271 q 618 331 559 271 q 667 407 652 365 z "},"ª":{"ha":439,"x_min":0,"x_max":0,"o":""},"«":{"ha":640,"x_min":0,"x_max":0,"o":""},"¬":{"ha":688,"x_min":0,"x_max":0,"o":""},"®":{"ha":1017,"x_min":0,"x_max":949,"o":"m 271 339 l 271 203 l 203 203 l 203 746 l 543 746 q 686 686 627 746 q 746 543 746 627 q 686 399 746 458 q 617 353 655 368 l 744 203 l 654 203 l 540 339 l 271 339 m 271 678 l 271 407 l 543 407 q 638 447 599 407 q 678 543 678 486 q 638 638 678 599 q 543 678 599 678 l 271 678 m 475 882 q 187 763 306 882 q 68 475 68 644 q 187 187 68 306 q 475 68 306 68 q 763 187 644 68 q 882 475 882 306 q 763 763 882 644 q 475 882 644 882 m 810 810 q 880 741 810 810 q 949 475 949 671 q 810 139 949 278 q 475 0 671 0 q 139 139 278 0 q 0 475 0 278 q 139 810 0 671 q 475 949 278 949 q 810 810 671 949 z "},"¯":{"ha":610,"x_min":0,"x_max":543,"o":"m 543 949 l 543 814 l 0 814 l 0 949 l 543 949 z "},"°":{"ha":407,"x_min":0,"x_max":339,"o":"m 170 949 q 290 900 240 949 q 339 780 339 850 q 290 660 339 709 q 170 610 240 610 q 50 660 99 610 q 0 780 0 709 q 50 900 0 850 q 170 949 99 949 m 170 882 q 98 852 127 882 q 68 780 68 822 q 98 708 68 738 q 170 678 127 678 q 241 708 212 678 q 271 780 271 738 q 241 852 271 822 q 170 882 212 882 z "},"±":{"ha":610,"x_min":0,"x_max":543,"o":"m 203 271 l 203 475 l 0 475 l 0 610 l 203 610 l 203 814 l 339 814 l 339 610 l 543 610 l 543 475 l 339 475 l 339 271 l 543 271 l 543 136 l 0 136 l 0 271 l 203 271 z "},"²":{"ha":688,"x_min":0,"x_max":0,"o":""},"³":{"ha":688,"x_min":0,"x_max":0,"o":""},"´":{"ha":203,"x_min":-48,"x_max":184,"o":"m 184 911 l 77 663 l -48 716 l 59 965 l 184 911 z "},"µ":{"ha":746,"x_min":0,"x_max":678,"o":"m 543 67 q 339 0 455 0 q 136 67 223 0 l 136 -271 l 0 -271 l 0 678 l 136 678 l 136 339 q 195 195 136 255 q 339 136 255 136 q 483 195 423 136 q 543 339 543 255 l 543 678 l 678 678 l 678 0 l 543 0 l 543 67 z "},"¶":{"ha":1017,"x_min":0,"x_max":949,"o":"m 678 0 l 543 0 l 543 407 l 271 407 q 79 486 159 407 q 0 678 0 566 q 79 870 0 791 q 271 949 159 949 l 949 949 l 949 0 l 814 0 l 814 814 l 678 814 l 678 0 z "},"·":{"ha":345,"x_min":0,"x_max":0,"o":""},"¸":{"ha":339,"x_min":0,"x_max":271,"o":"m 136 0 q 232 -40 192 0 q 271 -136 271 -79 q 232 -232 271 -192 q 136 -271 192 -271 q 40 -232 79 -271 q 0 -136 0 -192 l 68 -136 q 88 -183 68 -163 q 136 -203 108 -203 q 183 -183 163 -203 q 203 -136 203 -163 q 183 -88 203 -108 q 136 -68 163 -68 l 68 -68 l 68 68 l 136 68 l 136 0 z "},"¹":{"ha":688,"x_min":0,"x_max":0,"o":""},"º":{"ha":487,"x_min":0,"x_max":0,"o":""},"»":{"ha":640,"x_min":0,"x_max":0,"o":""},"¼":{"ha":1017,"x_min":0,"x_max":949,"o":"m 0 271 q 79 463 0 384 q 271 543 159 543 l 678 543 q 774 582 734 543 q 814 678 814 622 l 814 949 l 949 949 l 949 678 q 870 486 949 566 q 678 407 791 407 l 271 407 q 175 367 215 407 q 136 271 136 328 l 136 0 l 0 0 l 0 271 z "},"½":{"ha":1017,"x_min":0,"x_max":949,"o":"m 0 271 q 79 463 0 384 q 271 543 159 543 l 678 543 q 774 582 734 543 q 814 678 814 622 l 814 949 l 949 949 l 949 678 q 870 486 949 566 q 678 407 791 407 l 271 407 q 175 367 215 407 q 136 271 136 328 l 136 0 l 0 0 l 0 271 z "},"¾":{"ha":1017,"x_min":0,"x_max":949,"o":"m 0 271 q 79 463 0 384 q 271 543 159 543 l 678 543 q 774 582 734 543 q 814 678 814 622 l 814 949 l 949 949 l 949 678 q 870 486 949 566 q 678 407 791 407 l 271 407 q 175 367 215 407 q 136 271 136 328 l 136 0 l 0 0 l 0 271 z "},"¿":{"ha":1017,"x_min":0,"x_max":949,"o":"m 678 559 l 678 694 l 814 694 l 814 559 l 678 559 m 814 423 q 734 231 814 311 q 543 152 655 152 l 271 152 q 175 112 215 152 q 136 16 136 73 q 175 -80 136 -40 q 271 -119 215 -119 l 949 -119 l 949 -255 l 271 -255 q 79 -176 159 -255 q 0 16 0 -96 q 79 208 0 129 q 271 288 159 288 l 543 288 q 638 327 599 288 q 678 423 678 367 l 814 423 z "},"À":{"ha":1017,"x_min":0,"x_max":949,"o":"m 136 339 l 136 0 l 0 0 l 0 475 q 139 810 0 671 q 475 949 278 949 q 810 810 671 949 q 949 475 949 671 l 949 0 l 814 0 l 814 339 l 136 339 m 814 475 q 714 714 814 615 q 475 814 615 814 q 235 714 334 814 q 136 475 136 615 l 814 475 m 445 1243 l 552 994 l 427 941 l 320 1190 l 445 1243 z "},"Á":{"ha":1017,"x_min":0,"x_max":949,"o":"m 136 339 l 136 0 l 0 0 l 0 475 q 139 810 0 671 q 475 949 278 949 q 810 810 671 949 q 949 475 949 671 l 949 0 l 814 0 l 814 339 l 136 339 m 814 475 q 714 714 814 615 q 475 814 615 814 q 235 714 334 814 q 136 475 136 615 l 814 475 m 629 1190 l 522 941 l 397 994 l 505 1243 l 629 1190 z "},"Â":{"ha":1017,"x_min":0,"x_max":949,"o":"m 136 339 l 136 0 l 0 0 l 0 475 q 139 810 0 671 q 475 949 278 949 q 810 810 671 949 q 949 475 949 671 l 949 0 l 814 0 l 814 339 l 136 339 m 814 475 q 714 714 814 615 q 475 814 615 814 q 235 714 334 814 q 136 475 136 615 l 814 475 m 271 1024 l 407 1227 l 543 1227 l 678 1024 l 543 1024 l 475 1160 l 407 1024 l 271 1024 z "},"Ã":{"ha":1017,"x_min":0,"x_max":949,"o":"m 136 339 l 136 0 l 0 0 l 0 475 q 139 810 0 671 q 475 949 278 949 q 810 810 671 949 q 949 475 949 671 l 949 0 l 814 0 l 814 339 l 136 339 m 814 475 q 714 714 814 615 q 475 814 615 814 q 235 714 334 814 q 136 475 136 615 l 814 475 m 170 1024 q 373 1227 170 1227 q 475 1194 441 1227 q 576 1160 509 1160 q 644 1227 644 1160 l 780 1227 q 576 1024 780 1024 q 475 1058 509 1024 q 373 1092 441 1092 q 305 1024 305 1092 l 170 1024 z "},"Ä":{"ha":1017,"x_min":0,"x_max":949,"o":"m 136 339 l 136 0 l 0 0 l 0 475 q 139 810 0 671 q 475 949 278 949 q 810 810 671 949 q 949 475 949 671 l 949 0 l 814 0 l 814 339 l 136 339 m 814 475 q 714 714 814 615 q 475 814 615 814 q 235 714 334 814 q 136 475 136 615 l 814 475 m 441 1227 l 441 1092 l 305 1092 l 305 1227 l 441 1227 m 644 1227 l 644 1092 l 509 1092 l 509 1227 l 644 1227 z "},"Å":{"ha":1017,"x_min":0,"x_max":949,"o":"m 136 339 l 136 0 l 0 0 l 0 475 q 139 810 0 671 q 475 949 278 949 q 810 810 671 949 q 949 475 949 671 l 949 0 l 814 0 l 814 339 l 136 339 m 814 475 q 714 714 814 615 q 475 814 615 814 q 235 714 334 814 q 136 475 136 615 l 814 475 m 475 1227 q 571 1188 531 1227 q 610 1092 610 1148 q 571 996 610 1036 q 475 956 531 956 q 379 996 418 956 q 339 1092 339 1036 q 379 1188 339 1148 q 475 1227 418 1227 m 475 1160 q 427 1140 447 1160 q 407 1092 407 1120 q 427 1044 407 1064 q 475 1024 447 1024 q 523 1044 503 1024 q 543 1092 543 1064 q 523 1140 543 1120 q 475 1160 503 1160 z "},"Æ":{"ha":1831,"x_min":0,"x_max":1763,"o":"m 814 475 q 714 714 814 615 q 475 814 615 814 q 235 714 334 814 q 136 475 136 615 l 814 475 m 949 142 l 949 0 l 814 0 l 814 339 l 136 339 l 136 0 l 0 0 l 0 475 q 139 810 0 671 q 475 949 278 949 q 810 810 671 949 q 882 722 852 768 q 953 810 911 768 q 1289 949 1092 949 l 1763 949 l 1763 814 l 1289 814 q 1048 715 1148 814 q 956 543 975 640 l 1628 543 l 1628 407 l 956 407 q 1048 235 975 310 q 1289 136 1148 136 l 1763 136 l 1763 0 l 1289 0 q 953 139 1092 0 q 949 142 951 141 z "},"Ç":{"ha":1017,"x_min":0,"x_max":949,"o":"m 407 4 q 139 139 254 24 q 0 475 0 278 q 139 810 0 671 q 475 949 278 949 l 949 949 l 949 814 l 475 814 q 235 714 334 814 q 136 475 136 615 q 235 235 136 334 q 475 136 334 136 l 949 136 l 949 0 l 475 0 q 571 -40 531 0 q 610 -136 610 -79 q 571 -232 610 -192 q 475 -271 531 -271 q 379 -232 418 -271 q 339 -136 339 -192 l 407 -136 q 427 -183 407 -163 q 475 -203 447 -203 q 523 -183 503 -203 q 543 -136 543 -163 q 523 -88 543 -108 q 475 -68 503 -68 l 407 -68 l 407 4 z "},"È":{"ha":1017,"x_min":0,"x_max":949,"o":"m 475 949 l 949 949 l 949 814 l 475 814 q 235 715 334 814 q 142 543 161 640 l 814 543 l 814 407 l 142 407 q 235 235 161 309 q 475 136 334 136 l 949 136 l 949 0 l 475 0 q 139 139 278 0 q 0 475 0 278 q 139 810 0 671 q 475 949 278 949 m 445 1243 l 552 994 l 427 941 l 320 1190 l 445 1243 z "},"É":{"ha":1017,"x_min":0,"x_max":949,"o":"m 475 949 l 949 949 l 949 814 l 475 814 q 235 715 334 814 q 142 543 161 640 l 814 543 l 814 407 l 142 407 q 235 235 161 309 q 475 136 334 136 l 949 136 l 949 0 l 475 0 q 139 139 278 0 q 0 475 0 278 q 139 810 0 671 q 475 949 278 949 m 629 1190 l 522 941 l 397 994 l 505 1243 l 629 1190 z "},"Ê":{"ha":1017,"x_min":0,"x_max":949,"o":"m 475 949 l 949 949 l 949 814 l 475 814 q 235 715 334 814 q 142 543 161 640 l 814 543 l 814 407 l 142 407 q 235 235 161 309 q 475 136 334 136 l 949 136 l 949 0 l 475 0 q 139 139 278 0 q 0 475 0 278 q 139 810 0 671 q 475 949 278 949 m 271 1024 l 407 1227 l 543 1227 l 678 1024 l 543 1024 l 475 1160 l 407 1024 l 271 1024 z "},"Ë":{"ha":1017,"x_min":0,"x_max":949,"o":"m 475 949 l 949 949 l 949 814 l 475 814 q 235 715 334 814 q 142 543 161 640 l 814 543 l 814 407 l 142 407 q 235 235 161 309 q 475 136 334 136 l 949 136 l 949 0 l 475 0 q 139 139 278 0 q 0 475 0 278 q 139 810 0 671 q 475 949 278 949 m 441 1227 l 441 1092 l 305 1092 l 305 1227 l 441 1227 m 644 1227 l 644 1092 l 509 1092 l 509 1227 l 644 1227 z "},"Ì":{"ha":203,"x_min":-87,"x_max":145,"o":"m 136 0 l 0 0 l 0 949 l 136 949 l 136 0 m 38 1243 l 145 994 l 20 941 l -87 1190 l 38 1243 z "},"Í":{"ha":203,"x_min":-9,"x_max":222,"o":"m 136 0 l 0 0 l 0 949 l 136 949 l 136 0 m 222 1190 l 115 941 l -9 994 l 98 1243 l 222 1190 z "},"Î":{"ha":203,"x_min":-136,"x_max":271,"o":"m 136 0 l 0 0 l 0 949 l 136 949 l 136 0 m -136 1024 l 0 1227 l 136 1227 l 271 1024 l 136 1024 l 68 1160 l 0 1024 l -136 1024 z "},"Ï":{"ha":203,"x_min":-102,"x_max":237,"o":"m 136 0 l 0 0 l 0 949 l 136 949 l 136 0 m 34 1227 l 34 1092 l -102 1092 l -102 1227 l 34 1227 m 237 1227 l 237 1092 l 102 1092 l 102 1227 l 237 1227 z "},"Ð":{"ha":1017,"x_min":0,"x_max":949,"o":"m 271 543 l 543 543 l 543 407 l 271 407 l 271 136 l 475 136 q 714 235 615 136 q 814 475 814 334 q 714 714 814 615 q 475 814 615 814 l 271 814 l 271 543 m 136 407 l 0 407 l 0 543 l 136 543 l 136 949 l 475 949 q 810 810 671 949 q 949 475 949 671 q 810 139 949 278 q 475 0 671 0 l 136 0 l 136 407 z "},"Ñ":{"ha":1017,"x_min":0,"x_max":949,"o":"m 949 475 l 949 0 l 814 0 l 814 475 q 714 714 814 615 q 475 814 615 814 q 235 714 334 814 q 136 475 136 615 l 136 0 l 0 0 l 0 475 q 139 810 0 671 q 475 949 278 949 q 810 810 671 949 q 949 475 949 671 m 170 1024 q 373 1227 170 1227 q 475 1194 441 1227 q 576 1160 509 1160 q 644 1227 644 1160 l 780 1227 q 576 1024 780 1024 q 475 1058 509 1024 q 373 1092 441 1092 q 305 1024 305 1092 l 170 1024 z "},"Ò":{"ha":1017,"x_min":0,"x_max":949,"o":"m 475 949 q 810 810 671 949 q 949 475 949 671 q 810 139 949 278 q 475 0 671 0 q 139 139 278 0 q 0 475 0 278 q 139 810 0 671 q 475 949 278 949 m 475 814 q 235 714 334 814 q 136 475 136 615 q 235 235 136 334 q 475 136 334 136 q 714 235 615 136 q 814 475 814 334 q 714 714 814 615 q 475 814 615 814 m 445 1243 l 552 994 l 427 941 l 320 1190 l 445 1243 z "},"Ó":{"ha":1017,"x_min":0,"x_max":949,"o":"m 475 949 q 810 810 671 949 q 949 475 949 671 q 810 139 949 278 q 475 0 671 0 q 139 139 278 0 q 0 475 0 278 q 139 810 0 671 q 475 949 278 949 m 475 814 q 235 714 334 814 q 136 475 136 615 q 235 235 136 334 q 475 136 334 136 q 714 235 615 136 q 814 475 814 334 q 714 714 814 615 q 475 814 615 814 m 629 1190 l 522 941 l 397 994 l 505 1243 l 629 1190 z "},"Ô":{"ha":1017,"x_min":0,"x_max":949,"o":"m 475 949 q 810 810 671 949 q 949 475 949 671 q 810 139 949 278 q 475 0 671 0 q 139 139 278 0 q 0 475 0 278 q 139 810 0 671 q 475 949 278 949 m 475 814 q 235 714 334 814 q 136 475 136 615 q 235 235 136 334 q 475 136 334 136 q 714 235 615 136 q 814 475 814 334 q 714 714 814 615 q 475 814 615 814 m 271 1024 l 407 1227 l 543 1227 l 678 1024 l 543 1024 l 475 1160 l 407 1024 l 271 1024 z "},"Õ":{"ha":1017,"x_min":0,"x_max":949,"o":"m 475 949 q 810 810 671 949 q 949 475 949 671 q 810 139 949 278 q 475 0 671 0 q 139 139 278 0 q 0 475 0 278 q 139 810 0 671 q 475 949 278 949 m 475 814 q 235 714 334 814 q 136 475 136 615 q 235 235 136 334 q 475 136 334 136 q 714 235 615 136 q 814 475 814 334 q 714 714 814 615 q 475 814 615 814 m 170 1024 q 373 1227 170 1227 q 475 1194 441 1227 q 576 1160 509 1160 q 644 1227 644 1160 l 780 1227 q 576 1024 780 1024 q 475 1058 509 1024 q 373 1092 441 1092 q 305 1024 305 1092 l 170 1024 z "},"Ö":{"ha":1017,"x_min":0,"x_max":949,"o":"m 475 949 q 810 810 671 949 q 949 475 949 671 q 810 139 949 278 q 475 0 671 0 q 139 139 278 0 q 0 475 0 278 q 139 810 0 671 q 475 949 278 949 m 475 814 q 235 714 334 814 q 136 475 136 615 q 235 235 136 334 q 475 136 334 136 q 714 235 615 136 q 814 475 814 334 q 714 714 814 615 q 475 814 615 814 m 441 1227 l 441 1092 l 305 1092 l 305 1227 l 441 1227 m 644 1227 l 644 1092 l 509 1092 l 509 1227 l 644 1227 z "},"×":{"ha":610,"x_min":31,"x_max":511,"o":"m 271 570 l 415 715 l 511 618 l 367 475 l 511 331 l 415 235 l 271 379 l 127 235 l 31 331 l 176 475 l 31 618 l 127 715 l 271 570 z "},"Ø":{"ha":1017,"x_min":-5,"x_max":954,"o":"m 191 287 l 663 758 q 475 814 580 814 q 235 714 334 814 q 136 475 136 615 q 191 287 136 370 m 190 94 l 91 -5 l -5 91 l 94 190 q 0 475 0 313 q 139 810 0 671 q 475 949 278 949 q 760 855 637 949 l 859 954 l 954 859 l 855 760 q 949 475 949 637 q 810 139 949 278 q 475 0 671 0 q 190 94 313 0 m 758 663 l 287 191 q 475 136 370 136 q 714 235 615 136 q 814 475 814 334 q 758 663 814 580 z "},"Ù":{"ha":1017,"x_min":0,"x_max":949,"o":"m 0 475 l 0 949 l 136 949 l 136 475 q 235 235 136 334 q 475 136 334 136 q 714 235 615 136 q 814 475 814 334 l 814 949 l 949 949 l 949 475 q 810 139 949 278 q 475 0 671 0 q 139 139 278 0 q 0 475 0 278 m 445 1243 l 552 994 l 427 941 l 320 1190 l 445 1243 z "},"Ú":{"ha":1017,"x_min":0,"x_max":949,"o":"m 0 475 l 0 949 l 136 949 l 136 475 q 235 235 136 334 q 475 136 334 136 q 714 235 615 136 q 814 475 814 334 l 814 949 l 949 949 l 949 475 q 810 139 949 278 q 475 0 671 0 q 139 139 278 0 q 0 475 0 278 m 629 1190 l 522 941 l 397 994 l 505 1243 l 629 1190 z "},"Û":{"ha":1017,"x_min":0,"x_max":949,"o":"m 0 475 l 0 949 l 136 949 l 136 475 q 235 235 136 334 q 475 136 334 136 q 714 235 615 136 q 814 475 814 334 l 814 949 l 949 949 l 949 475 q 810 139 949 278 q 475 0 671 0 q 139 139 278 0 q 0 475 0 278 m 271 1024 l 407 1227 l 543 1227 l 678 1024 l 543 1024 l 475 1160 l 407 1024 l 271 1024 z "},"Ü":{"ha":1017,"x_min":0,"x_max":949,"o":"m 0 475 l 0 949 l 136 949 l 136 475 q 235 235 136 334 q 475 136 334 136 q 714 235 615 136 q 814 475 814 334 l 814 949 l 949 949 l 949 475 q 810 139 949 278 q 475 0 671 0 q 139 139 278 0 q 0 475 0 278 m 441 1227 l 441 1092 l 305 1092 l 305 1227 l 441 1227 m 644 1227 l 644 1092 l 509 1092 l 509 1227 l 644 1227 z "},"Ý":{"ha":1017,"x_min":0,"x_max":949,"o":"m 407 343 q 139 478 254 363 q 0 814 0 617 l 0 949 l 136 949 l 136 814 q 235 574 136 673 q 475 475 334 475 q 714 574 615 475 q 814 814 814 673 l 814 949 l 949 949 l 949 814 q 810 478 949 617 q 543 343 696 363 l 543 0 l 407 0 l 407 343 m 629 1190 l 522 941 l 397 994 l 505 1243 l 629 1190 z "},"Þ":{"ha":746,"x_min":0,"x_max":678,"o":"m 195 618 q 165 589 195 618 q 136 475 136 559 q 195 331 136 391 q 339 271 255 271 q 483 331 423 271 q 543 475 543 391 q 483 618 543 559 q 339 678 423 678 q 195 618 255 678 m 0 949 l 136 949 l 136 747 q 339 814 223 814 q 579 714 479 814 q 678 475 678 615 q 579 235 678 334 q 339 136 479 136 q 136 203 223 136 l 136 0 l 0 0 l 0 949 z "},"ß":{"ha":1017,"x_min":0,"x_max":949,"o":"m 271 949 l 678 949 q 870 870 791 949 q 949 678 949 791 q 870 486 949 566 q 858 475 864 480 q 870 463 864 469 q 949 271 949 384 q 870 79 949 159 q 678 0 791 0 l 271 0 l 271 136 l 678 136 q 774 175 734 136 q 814 271 814 215 q 774 367 814 328 q 678 407 734 407 l 271 407 l 271 543 l 678 543 q 774 582 734 543 q 814 678 814 622 q 774 774 814 734 q 678 814 734 814 l 271 814 q 175 774 215 814 q 136 678 136 734 l 136 0 l 0 0 l 0 678 q 79 870 0 791 q 271 949 159 949 z "},"à":{"ha":746,"x_min":0,"x_max":678,"o":"m 339 543 q 195 483 255 543 q 136 339 136 423 q 195 195 136 255 q 339 136 255 136 q 483 195 423 136 q 543 339 543 255 q 483 483 543 423 q 339 543 423 543 m 543 67 q 339 0 455 0 q 99 99 199 0 q 0 339 0 199 q 99 579 0 479 q 339 678 199 678 q 579 579 479 678 q 678 339 678 479 l 678 0 l 543 0 l 543 67 m 309 965 l 416 716 l 292 663 l 184 911 l 309 965 z "},"á":{"ha":746,"x_min":0,"x_max":678,"o":"m 339 543 q 195 483 255 543 q 136 339 136 423 q 195 195 136 255 q 339 136 255 136 q 483 195 423 136 q 543 339 543 255 q 483 483 543 423 q 339 543 423 543 m 543 67 q 339 0 455 0 q 99 99 199 0 q 0 339 0 199 q 99 579 0 479 q 339 678 199 678 q 579 579 479 678 q 678 339 678 479 l 678 0 l 543 0 l 543 67 m 494 911 l 387 663 l 262 716 l 369 965 l 494 911 z "},"â":{"ha":746,"x_min":0,"x_max":678,"o":"m 339 543 q 195 483 255 543 q 136 339 136 423 q 195 195 136 255 q 339 136 255 136 q 483 195 423 136 q 543 339 543 255 q 483 483 543 423 q 339 543 423 543 m 543 67 q 339 0 455 0 q 99 99 199 0 q 0 339 0 199 q 99 579 0 479 q 339 678 199 678 q 579 579 479 678 q 678 339 678 479 l 678 0 l 543 0 l 543 67 m 136 746 l 271 949 l 407 949 l 543 746 l 407 746 l 339 882 l 271 746 l 136 746 z "},"ã":{"ha":746,"x_min":0,"x_max":678,"o":"m 339 543 q 195 483 255 543 q 136 339 136 423 q 195 195 136 255 q 339 136 255 136 q 483 195 423 136 q 543 339 543 255 q 483 483 543 423 q 339 543 423 543 m 543 67 q 339 0 455 0 q 99 99 199 0 q 0 339 0 199 q 99 579 0 479 q 339 678 199 678 q 579 579 479 678 q 678 339 678 479 l 678 0 l 543 0 l 543 67 m 34 746 q 237 949 34 949 q 339 916 305 949 q 441 882 373 882 q 509 949 509 882 l 644 949 q 441 746 644 746 q 339 780 373 746 q 237 814 305 814 q 170 746 170 814 l 34 746 z "},"ä":{"ha":746,"x_min":0,"x_max":678,"o":"m 339 543 q 195 483 255 543 q 136 339 136 423 q 195 195 136 255 q 339 136 255 136 q 483 195 423 136 q 543 339 543 255 q 483 483 543 423 q 339 543 423 543 m 543 67 q 339 0 455 0 q 99 99 199 0 q 0 339 0 199 q 99 579 0 479 q 339 678 199 678 q 579 579 479 678 q 678 339 678 479 l 678 0 l 543 0 l 543 67 m 305 949 l 305 814 l 170 814 l 170 949 l 305 949 m 509 949 l 509 814 l 373 814 l 373 949 l 509 949 z "},"å":{"ha":746,"x_min":0,"x_max":678,"o":"m 339 543 q 195 483 255 543 q 136 339 136 423 q 195 195 136 255 q 339 136 255 136 q 483 195 423 136 q 543 339 543 255 q 483 483 543 423 q 339 543 423 543 m 543 67 q 339 0 455 0 q 99 99 199 0 q 0 339 0 199 q 99 579 0 479 q 339 678 199 678 q 579 579 479 678 q 678 339 678 479 l 678 0 l 543 0 l 543 67 m 339 949 q 435 910 395 949 q 475 814 475 870 q 435 718 475 758 q 339 678 395 678 q 243 718 283 678 q 203 814 203 758 q 243 910 203 870 q 339 949 283 949 m 339 882 q 291 862 311 882 q 271 814 271 842 q 291 766 271 786 q 339 746 311 746 q 387 766 367 746 q 407 814 407 786 q 387 862 407 842 q 339 882 367 882 z "},"æ":{"ha":1289,"x_min":0,"x_max":1221,"o":"m 339 543 q 195 483 255 543 q 136 339 136 423 q 195 195 136 255 q 339 136 255 136 q 483 195 423 136 q 543 339 543 255 q 483 483 543 423 q 339 543 423 543 m 1074 407 q 1025 483 1059 449 q 882 543 966 543 q 738 483 798 543 q 689 407 704 449 l 1074 407 m 678 67 l 678 0 l 543 0 l 543 67 q 339 0 455 0 q 99 99 199 0 q 0 339 0 199 q 99 579 0 479 q 339 678 199 678 q 579 579 479 678 q 610 543 596 562 q 642 579 625 562 q 882 678 741 678 q 1121 579 1022 678 q 1221 339 1221 479 q 1215 271 1221 304 l 689 271 q 738 195 704 229 q 882 136 798 136 q 1025 195 966 136 q 1034 203 1029 199 l 1194 203 q 1122 99 1169 146 q 882 0 1022 0 q 678 67 766 0 z "},"ç":{"ha":746,"x_min":0,"x_max":672,"o":"m 268 7 q 100 100 172 26 q 0 339 0 199 q 99 579 0 479 q 339 678 199 678 q 579 579 479 678 q 672 407 653 505 l 532 407 q 483 483 517 449 q 339 543 423 543 q 195 483 255 543 q 136 339 136 423 q 195 195 136 255 q 339 136 255 136 q 483 195 423 136 q 532 271 517 229 l 672 271 q 579 100 653 174 q 339 0 479 0 l 336 0 q 432 -40 392 0 q 471 -136 471 -79 q 432 -232 471 -192 q 336 -271 392 -271 q 240 -232 279 -271 q 200 -136 200 -192 l 268 -136 q 288 -183 268 -163 q 336 -203 308 -203 q 384 -183 363 -203 q 404 -136 404 -163 q 384 -88 404 -108 q 336 -68 363 -68 l 268 -68 l 268 7 z "},"è":{"ha":746,"x_min":0,"x_max":678,"o":"m 532 407 q 483 483 517 449 q 339 543 423 543 q 195 483 255 543 q 146 407 161 449 l 532 407 m 490 203 l 651 203 q 579 100 626 146 q 339 0 479 0 q 99 99 199 0 q 0 339 0 199 q 99 579 0 479 q 339 678 199 678 q 579 579 479 678 q 678 339 678 479 q 672 271 678 304 l 146 271 q 195 195 161 229 q 339 136 255 136 q 483 195 423 136 q 490 203 487 199 m 309 965 l 416 716 l 292 663 l 184 911 l 309 965 z "},"é":{"ha":746,"x_min":0,"x_max":678,"o":"m 532 407 q 483 483 517 449 q 339 543 423 543 q 195 483 255 543 q 146 407 161 449 l 532 407 m 490 203 l 651 203 q 579 100 626 146 q 339 0 479 0 q 99 99 199 0 q 0 339 0 199 q 99 579 0 479 q 339 678 199 678 q 579 579 479 678 q 678 339 678 479 q 672 271 678 304 l 146 271 q 195 195 161 229 q 339 136 255 136 q 483 195 423 136 q 490 203 487 199 m 494 911 l 387 663 l 262 716 l 369 965 l 494 911 z "},"ê":{"ha":746,"x_min":0,"x_max":678,"o":"m 532 407 q 483 483 517 449 q 339 543 423 543 q 195 483 255 543 q 146 407 161 449 l 532 407 m 490 203 l 651 203 q 579 100 626 146 q 339 0 479 0 q 99 99 199 0 q 0 339 0 199 q 99 579 0 479 q 339 678 199 678 q 579 579 479 678 q 678 339 678 479 q 672 271 678 304 l 146 271 q 195 195 161 229 q 339 136 255 136 q 483 195 423 136 q 490 203 487 199 m 136 746 l 271 949 l 407 949 l 543 746 l 407 746 l 339 882 l 271 746 l 136 746 z "},"ë":{"ha":746,"x_min":0,"x_max":678,"o":"m 532 407 q 483 483 517 449 q 339 543 423 543 q 195 483 255 543 q 146 407 161 449 l 532 407 m 490 203 l 651 203 q 579 100 626 146 q 339 0 479 0 q 99 99 199 0 q 0 339 0 199 q 99 579 0 479 q 339 678 199 678 q 579 579 479 678 q 678 339 678 479 q 672 271 678 304 l 146 271 q 195 195 161 229 q 339 136 255 136 q 483 195 423 136 q 490 203 487 199 m 305 949 l 305 814 l 170 814 l 170 949 l 305 949 m 509 949 l 509 814 l 373 814 l 373 949 l 509 949 z "},"ì":{"ha":203,"x_min":-87,"x_max":145,"o":"m 136 678 l 136 0 l 0 0 l 0 678 l 136 678 m 38 965 l 145 716 l 20 663 l -87 911 l 38 965 z "},"í":{"ha":203,"x_min":-9,"x_max":222,"o":"m 136 678 l 136 0 l 0 0 l 0 678 l 136 678 m 222 911 l 115 663 l -9 716 l 98 965 l 222 911 z "},"î":{"ha":203,"x_min":-136,"x_max":271,"o":"m 136 678 l 136 0 l 0 0 l 0 678 l 136 678 m -136 746 l 0 949 l 136 949 l 271 746 l 136 746 l 68 882 l 0 746 l -136 746 z "},"ï":{"ha":203,"x_min":-102,"x_max":237,"o":"m 136 678 l 136 0 l 0 0 l 0 678 l 136 678 m 34 949 l 34 814 l -102 814 l -102 949 l 34 949 m 237 949 l 237 814 l 102 814 l 102 949 l 237 949 z "},"ð":{"ha":746,"x_min":0,"x_max":678,"o":"m 339 543 q 195 483 255 543 q 136 339 136 423 q 195 195 136 255 q 339 136 255 136 q 483 195 423 136 q 543 339 543 255 q 483 483 543 423 q 339 543 423 543 m 651 746 q 678 610 678 671 l 678 339 q 579 99 678 199 q 339 0 479 0 q 99 99 199 0 q 0 339 0 199 q 99 579 0 479 q 339 678 199 678 q 543 611 455 678 q 515 746 543 671 l 407 746 l 407 882 l 450 882 q 407 949 430 915 l 543 949 q 585 882 566 915 l 678 882 l 678 746 l 651 746 z "},"ñ":{"ha":746,"x_min":0,"x_max":678,"o":"m 136 339 l 136 0 l 0 0 l 0 339 q 99 579 0 479 q 339 678 199 678 q 579 579 479 678 q 678 339 678 479 l 678 0 l 543 0 l 543 339 q 483 483 543 423 q 339 543 423 543 q 195 483 255 543 q 136 339 136 423 m 34 746 q 237 949 34 949 q 339 916 305 949 q 441 882 373 882 q 509 949 509 882 l 644 949 q 441 746 644 746 q 339 780 373 746 q 237 814 305 814 q 170 746 170 814 l 34 746 z "},"ò":{"ha":746,"x_min":0,"x_max":678,"o":"m 339 678 q 579 579 479 678 q 678 339 678 479 q 579 99 678 199 q 339 0 479 0 q 99 99 199 0 q 0 339 0 199 q 99 579 0 479 q 339 678 199 678 m 339 543 q 195 483 255 543 q 136 339 136 423 q 195 195 136 255 q 339 136 255 136 q 483 195 423 136 q 543 339 543 255 q 483 483 543 423 q 339 543 423 543 m 309 965 l 416 716 l 292 663 l 184 911 l 309 965 z "},"ó":{"ha":746,"x_min":0,"x_max":678,"o":"m 339 678 q 579 579 479 678 q 678 339 678 479 q 579 99 678 199 q 339 0 479 0 q 99 99 199 0 q 0 339 0 199 q 99 579 0 479 q 339 678 199 678 m 339 543 q 195 483 255 543 q 136 339 136 423 q 195 195 136 255 q 339 136 255 136 q 483 195 423 136 q 543 339 543 255 q 483 483 543 423 q 339 543 423 543 m 494 911 l 387 663 l 262 716 l 369 965 l 494 911 z "},"ô":{"ha":746,"x_min":0,"x_max":678,"o":"m 339 678 q 579 579 479 678 q 678 339 678 479 q 579 99 678 199 q 339 0 479 0 q 99 99 199 0 q 0 339 0 199 q 99 579 0 479 q 339 678 199 678 m 339 543 q 195 483 255 543 q 136 339 136 423 q 195 195 136 255 q 339 136 255 136 q 483 195 423 136 q 543 339 543 255 q 483 483 543 423 q 339 543 423 543 m 136 746 l 271 949 l 407 949 l 543 746 l 407 746 l 339 882 l 271 746 l 136 746 z "},"õ":{"ha":746,"x_min":0,"x_max":678,"o":"m 339 678 q 579 579 479 678 q 678 339 678 479 q 579 99 678 199 q 339 0 479 0 q 99 99 199 0 q 0 339 0 199 q 99 579 0 479 q 339 678 199 678 m 339 543 q 195 483 255 543 q 136 339 136 423 q 195 195 136 255 q 339 136 255 136 q 483 195 423 136 q 543 339 543 255 q 483 483 543 423 q 339 543 423 543 m 34 746 q 237 949 34 949 q 339 916 305 949 q 441 882 373 882 q 509 949 509 882 l 644 949 q 441 746 644 746 q 339 780 373 746 q 237 814 305 814 q 170 746 170 814 l 34 746 z "},"ö":{"ha":746,"x_min":0,"x_max":678,"o":"m 339 678 q 579 579 479 678 q 678 339 678 479 q 579 99 678 199 q 339 0 479 0 q 99 99 199 0 q 0 339 0 199 q 99 579 0 479 q 339 678 199 678 m 339 543 q 195 483 255 543 q 136 339 136 423 q 195 195 136 255 q 339 136 255 136 q 483 195 423 136 q 543 339 543 255 q 483 483 543 423 q 339 543 423 543 m 305 949 l 305 814 l 170 814 l 170 949 l 305 949 m 509 949 l 509 814 l 373 814 l 373 949 l 509 949 z "},"÷":{"ha":610,"x_min":0,"x_max":543,"o":"m 543 543 l 543 407 l 0 407 l 0 543 l 543 543 m 339 746 l 339 610 l 203 610 l 203 746 l 339 746 m 339 339 l 339 203 l 203 203 l 203 339 l 339 339 z "},"ø":{"ha":746,"x_min":0,"x_max":678,"o":"m 155 251 l 427 523 q 339 543 387 543 q 195 483 255 543 q 136 339 136 423 q 155 251 136 291 m 151 56 l 99 3 l 3 99 l 56 151 q 0 339 0 234 q 99 579 0 479 q 339 678 199 678 q 527 623 444 678 l 579 675 l 675 579 l 623 527 q 678 339 678 444 q 579 99 678 199 q 339 0 479 0 q 151 56 234 0 m 523 427 l 251 155 q 339 136 291 136 q 483 195 423 136 q 543 339 543 255 q 523 427 543 387 z "},"ù":{"ha":746,"x_min":0,"x_max":678,"o":"m 136 339 q 195 195 136 255 q 339 136 255 136 q 483 195 423 136 q 543 339 543 255 l 543 678 l 678 678 l 678 339 q 579 99 678 199 q 339 0 479 0 q 99 99 199 0 q 0 339 0 199 l 0 678 l 136 678 l 136 339 m 309 965 l 416 716 l 292 663 l 184 911 l 309 965 z "},"ú":{"ha":746,"x_min":0,"x_max":678,"o":"m 136 339 q 195 195 136 255 q 339 136 255 136 q 483 195 423 136 q 543 339 543 255 l 543 678 l 678 678 l 678 339 q 579 99 678 199 q 339 0 479 0 q 99 99 199 0 q 0 339 0 199 l 0 678 l 136 678 l 136 339 m 494 911 l 387 663 l 262 716 l 369 965 l 494 911 z "},"û":{"ha":746,"x_min":0,"x_max":678,"o":"m 136 339 q 195 195 136 255 q 339 136 255 136 q 483 195 423 136 q 543 339 543 255 l 543 678 l 678 678 l 678 339 q 579 99 678 199 q 339 0 479 0 q 99 99 199 0 q 0 339 0 199 l 0 678 l 136 678 l 136 339 m 136 746 l 271 949 l 407 949 l 543 746 l 407 746 l 339 882 l 271 746 l 136 746 z "},"ü":{"ha":746,"x_min":0,"x_max":678,"o":"m 136 339 q 195 195 136 255 q 339 136 255 136 q 483 195 423 136 q 543 339 543 255 l 543 678 l 678 678 l 678 339 q 579 99 678 199 q 339 0 479 0 q 99 99 199 0 q 0 339 0 199 l 0 678 l 136 678 l 136 339 m 305 949 l 305 814 l 170 814 l 170 949 l 305 949 m 509 949 l 509 814 l 373 814 l 373 949 l 509 949 z "},"ý":{"ha":746,"x_min":0,"x_max":678,"o":"m 678 68 q 579 -172 678 -73 q 339 -271 479 -271 l 339 -136 q 483 -76 423 -136 q 543 67 543 -16 q 339 0 455 0 q 99 99 199 0 q 0 339 0 199 l 0 678 l 136 678 l 136 339 q 195 195 136 255 q 339 136 255 136 q 483 195 423 136 q 543 339 543 255 l 543 678 l 678 678 l 678 68 m 494 911 l 387 663 l 262 716 l 369 965 l 494 911 z "},"þ":{"ha":746,"x_min":0,"x_max":678,"o":"m 195 483 q 165 453 195 483 q 136 339 136 423 q 195 195 136 255 q 339 136 255 136 q 483 195 423 136 q 543 339 543 255 q 483 483 543 423 q 339 543 423 543 q 195 483 255 543 m 0 814 l 136 814 l 136 611 q 339 678 223 678 q 579 579 479 678 q 678 339 678 479 q 579 99 678 199 q 339 0 479 0 q 136 67 223 0 l 136 -136 l 0 -136 l 0 814 z "},"ÿ":{"ha":746,"x_min":0,"x_max":678,"o":"m 678 68 q 579 -172 678 -73 q 339 -271 479 -271 l 339 -136 q 483 -76 423 -136 q 543 67 543 -16 q 339 0 455 0 q 99 99 199 0 q 0 339 0 199 l 0 678 l 136 678 l 136 339 q 195 195 136 255 q 339 136 255 136 q 483 195 423 136 q 543 339 543 255 l 543 678 l 678 678 l 678 68 m 305 949 l 305 814 l 170 814 l 170 949 l 305 949 m 509 949 l 509 814 l 373 814 l 373 949 l 509 949 z "},"ı":{"ha":203,"x_min":0,"x_max":136,"o":"m 136 678 l 136 0 l 0 0 l 0 678 l 136 678 z "},"ˆ":{"ha":475,"x_min":0,"x_max":407,"o":"m 0 746 l 136 949 l 271 949 l 407 746 l 271 746 l 203 882 l 136 746 l 0 746 z "},"ˇ":{"ha":475,"x_min":0,"x_max":407,"o":"m 136 949 l 203 814 l 271 949 l 407 949 l 271 746 l 136 746 l 0 949 l 136 949 z "},"ˉ":{"ha":694,"x_min":0,"x_max":0,"o":""},"˘":{"ha":694,"x_min":0,"x_max":0,"o":""},"˙":{"ha":203,"x_min":0,"x_max":136,"o":"m 136 949 l 136 814 l 0 814 l 0 949 l 136 949 z "},"˚":{"ha":339,"x_min":0,"x_max":271,"o":"m 136 949 q 232 910 192 949 q 271 814 271 870 q 232 718 271 758 q 136 678 192 678 q 40 718 79 678 q 0 814 0 758 q 40 910 0 870 q 136 949 79 949 m 136 882 q 88 862 108 882 q 68 814 68 842 q 88 766 68 786 q 136 746 108 746 q 183 766 163 746 q 203 814 203 786 q 183 862 203 842 q 136 882 163 882 z "},"˛":{"ha":694,"x_min":0,"x_max":0,"o":""},"˜":{"ha":678,"x_min":0,"x_max":610,"o":"m 0 746 q 203 949 0 949 q 305 916 271 949 q 407 882 339 882 q 475 949 475 882 l 610 949 q 407 746 610 746 q 305 780 339 746 q 203 814 271 814 q 136 746 136 814 l 0 746 z "},"˝":{"ha":694,"x_min":0,"x_max":0,"o":""},"–":{"ha":746,"x_min":0,"x_max":678,"o":"m 678 543 l 678 407 l 0 407 l 0 543 l 678 543 z "},"—":{"ha":1017,"x_min":0,"x_max":949,"o":"m 949 543 l 949 407 l 0 407 l 0 543 l 949 543 z "},"‘":{"ha":203,"x_min":0,"x_max":136,"o":"m 136 949 l 136 678 l 0 678 l 0 949 l 136 949 z "},"’":{"ha":203,"x_min":0,"x_max":136,"o":"m 136 949 l 136 678 l 0 678 l 0 949 l 136 949 z "},"‚":{"ha":203,"x_min":0,"x_max":136,"o":"m 136 271 l 136 0 l 0 0 l 0 271 l 136 271 z "},"“":{"ha":407,"x_min":0,"x_max":339,"o":"m 136 949 l 136 678 l 0 678 l 0 949 l 136 949 m 339 949 l 339 678 l 203 678 l 203 949 l 339 949 z "},"”":{"ha":407,"x_min":0,"x_max":339,"o":"m 136 949 l 136 678 l 0 678 l 0 949 l 136 949 m 339 949 l 339 678 l 203 678 l 203 949 l 339 949 z "},"„":{"ha":407,"x_min":0,"x_max":339,"o":"m 136 271 l 136 0 l 0 0 l 0 271 l 136 271 m 339 271 l 339 0 l 203 0 l 203 271 l 339 271 z "},"†":{"ha":688,"x_min":0,"x_max":0,"o":""},"‡":{"ha":688,"x_min":0,"x_max":0,"o":""},"•":{"ha":339,"x_min":0,"x_max":271,"o":"m 136 610 q 232 571 192 610 q 271 475 271 531 q 232 379 271 418 q 136 339 192 339 q 40 379 79 339 q 0 475 0 418 q 40 571 0 531 q 136 610 79 610 z "},"…":{"ha":1389,"x_min":0,"x_max":1062,"o":"m 136 136 l 136 0 l 0 0 l 0 136 l 136 136 m 599 136 l 599 0 l 463 0 l 463 136 l 599 136 m 1062 136 l 1062 0 l 926 0 l 926 136 l 1062 136 z "},"‹":{"ha":428,"x_min":0,"x_max":0,"o":""},"›":{"ha":428,"x_min":0,"x_max":0,"o":""},"⁄":{"ha":232,"x_min":0,"x_max":0,"o":""},"₣":{"ha":688,"x_min":0,"x_max":0,"o":""},"₤":{"ha":688,"x_min":0,"x_max":0,"o":""},"₧":{"ha":2035,"x_min":0,"x_max":1967,"o":"m 122 814 l 122 543 l 610 543 q 697 582 661 543 q 732 678 732 622 q 697 774 732 734 q 610 814 661 814 l 122 814 m 0 949 l 610 949 q 783 870 712 949 q 855 678 855 791 q 783 486 855 566 q 610 407 712 407 l 122 407 l 122 0 l 0 0 l 0 949 m 882 949 l 1017 949 l 1017 678 l 1221 678 l 1221 543 l 1017 543 l 1017 339 q 1077 195 1017 255 q 1221 136 1137 136 l 1221 0 q 981 99 1080 0 q 882 339 882 199 l 882 949 m 1492 678 l 1967 678 l 1967 543 l 1492 543 q 1444 523 1464 543 q 1424 475 1424 503 q 1444 427 1424 447 q 1492 407 1464 407 l 1763 407 q 1907 347 1847 407 q 1967 203 1967 288 q 1907 60 1967 119 q 1763 0 1847 0 l 1289 0 l 1289 136 l 1763 136 q 1811 156 1791 136 q 1831 203 1831 176 q 1811 251 1831 231 q 1763 271 1791 271 l 1492 271 q 1348 331 1408 271 q 1289 475 1289 391 q 1348 618 1289 559 q 1492 678 1408 678 z "},"€":{"ha":1017,"x_min":0,"x_max":949,"o":"m 180 678 q 275 810 214 750 q 610 949 414 949 l 949 949 l 949 814 l 610 814 q 371 715 470 814 q 338 678 353 697 l 882 678 l 882 543 l 277 543 q 271 475 271 510 q 277 407 271 439 l 882 407 l 882 271 l 338 271 q 371 235 353 252 q 610 136 470 136 l 949 136 l 949 0 l 610 0 q 275 139 414 0 q 180 271 214 199 l 0 271 l 0 407 l 140 407 q 136 475 136 440 q 140 543 136 509 l 0 543 l 0 678 l 180 678 z "},"№":{"ha":1763,"x_min":0,"x_max":1695,"o":"m 949 475 l 949 0 l 814 0 l 814 475 q 714 714 814 615 q 475 814 615 814 q 235 714 334 814 q 136 475 136 615 l 136 0 l 0 0 l 0 475 q 139 810 0 671 q 475 949 278 949 q 810 810 671 949 q 949 475 949 671 m 1356 949 q 1596 850 1497 949 q 1695 610 1695 751 q 1596 371 1695 470 q 1356 271 1497 271 q 1117 371 1216 271 q 1017 610 1017 470 q 1117 850 1017 751 q 1356 949 1216 949 m 1356 814 q 1213 754 1272 814 q 1153 610 1153 694 q 1213 467 1153 526 q 1356 407 1272 407 q 1500 467 1440 407 q 1560 610 1560 526 q 1500 754 1560 694 q 1356 814 1440 814 m 1017 68 l 1017 203 l 1695 203 l 1695 68 l 1017 68 z "},"™":{"ha":1289,"x_min":0,"x_max":1221,"o":"m 244 593 l 183 593 l 183 918 l 0 918 l 0 973 l 427 973 l 427 918 l 244 918 l 244 593 m 793 783 q 749 879 793 839 q 641 918 704 918 q 533 879 578 918 q 488 783 488 839 l 488 593 l 427 593 l 427 783 q 490 917 427 861 q 641 973 552 973 q 792 917 729 973 q 824 881 811 900 q 856 917 837 900 q 1007 973 919 973 q 1158 917 1096 973 q 1221 783 1221 861 l 1221 593 l 1160 593 l 1160 783 q 1115 879 1160 839 q 1007 918 1070 918 q 899 879 944 918 q 855 783 855 839 l 855 593 l 793 593 l 793 783 z "},"∂":{"ha":688,"x_min":0,"x_max":0,"o":""},"∆":{"ha":733,"x_min":0,"x_max":0,"o":""},"∏":{"ha":1027,"x_min":0,"x_max":0,"o":""},"∑":{"ha":818,"x_min":0,"x_max":0,"o":""},"−":{"ha":610,"x_min":0,"x_max":543,"o":"m 543 543 l 543 407 l 0 407 l 0 543 l 543 543 z "},"√":{"ha":688,"x_min":0,"x_max":0,"o":""},"∞":{"ha":688,"x_min":0,"x_max":0,"o":""},"∫":{"ha":451,"x_min":0,"x_max":0,"o":""},"≈":{"ha":688,"x_min":0,"x_max":0,"o":""},"≤":{"ha":688,"x_min":0,"x_max":0,"o":""},"≥":{"ha":688,"x_min":0,"x_max":0,"o":""},"":{"ha":728,"x_min":0,"x_max":0,"o":""},"":{"ha":733,"x_min":0,"x_max":0,"o":""}}}
